{
  "accessors": [
    {
      "bufferView": 2,
      "componentType": 5126,
      "count": 374,
      "max": [
        0.036305129528045654,
        0.9912435412406921,
        0.9000005722045898
      ],
      "min": [
        -0.05063110589981079,
        -0.9912435412406921,
        -1.094673991203308
      ],
      "type": "VEC3"
    },
    {
      "bufferView": 2,
      "byteOffset": 4488,
      "componentType": 5126,
      "count": 374,
      "max": [
        1.0,
        1.0,
        1.0
      ],
      "min": [
        0.0,
        -1.0,
        -0.9446911215782166
      ],
      "type": "VEC3"
    },
    {
      "bufferView": 1,
      "componentType": 5126,
      "count": 374,
      "max": [
        0.9605592489242554,
        0.9627019166946411
      ],
      "min": [
        0.0,
        0.0
      ],
      "type": "VEC2"
    },
    {
      "bufferView": 0,
      "componentType": 5125,
      "count": 1164,
      "type": "SCALAR"
    },
    {
      "bufferView": 2,
      "byteOffset": 8976,
      "componentType": 5126,
      "count": 97,
      "max": [
        0.036473143845796585,
        0.9912435412406921,
        0.9000005722045898
      ],
      "min": [
        -0.05063110589981079,
        -0.9912435412406921,
        -1.0999994277954102
      ],
      "type": "VEC3"
    },
    {
      "bufferView": 2,
      "byteOffset": 10140,
      "componentType": 5126,
      "count": 97,
      "max": [
        1.0,
        1.0,
        1.0
      ],
      "min": [
        -1.0,
        -1.0,
        -1.0
      ],
      "type": "VEC3"
    },
    {
      "bufferView": 1,
      "byteOffset": 2992,
      "componentType": 5126,
      "count": 97,
      "max": [
        1.0,
        0.969943106174469
      ],
      "min": [
        0.0,
        0.0
      ],
      "type": "VEC2"
    },
    {
      "bufferView": 0,
      "byteOffset": 4656,
      "componentType": 5125,
      "count": 201,
      "type": "SCALAR"
    },
    {
      "bufferView": 2,
      "byteOffset": 11304,
      "componentType": 5126,
      "count": 123,
      "max": [
        0.05063110589981079,
        0.9912435412406921,
        1.0999994277954102
      ],
      "min": [
        -0.05063110589981079,
        -0.9912435412406921,
        -1.094673991203308
      ],
      "type": "VEC3"
    },
    {
      "bufferView": 2,
      "byteOffset": 12780,
      "componentType": 5126,
      "count": 123,
      "max": [
        1.0,
        1.0,
        1.0
      ],
      "min": [
        -1.0,
        -1.0,
        -1.0
      ],
      "type": "VEC3"
    },
    {
      "bufferView": 1,
      "byteOffset": 3768,
      "componentType": 5126,
      "count": 123,
      "max": [
        0.9989473819732666,
        0.9999999403953552
      ],
      "min": [
        7.228920395618843e-08,
        0.0
      ],
      "type": "VEC2"
    },
    {
      "bufferView": 0,
      "byteOffset": 5460,
      "componentType": 5125,
      "count": 324,
      "type": "SCALAR"
    },
    {
      "bufferView": 2,
      "byteOffset": 14256,
      "componentType": 5126,
      "count": 64,
      "max": [
        -0.030187183991074562,
        0.11790590733289719,
        0.017907720059156418
      ],
      "min": [
        -0.032238252460956573,
        -0.11790721863508224,
        -0.21790659427642822
      ],
      "type": "VEC3"
    },
    {
      "bufferView": 2,
      "byteOffset": 15024,
      "componentType": 5126,
      "count": 64,
      "max": [
        0.9999997615814209,
        0.028962157666683197,
        0.0288402009755373
      ],
      "min": [
        0.9995759725570679,
        -0.0288402009755373,
        -0.0288402009755373
      ],
      "type": "VEC3"
    },
    {
      "bufferView": 1,
      "byteOffset": 4752,
      "componentType": 5126,
      "count": 64,
      "max": [
        0.4806106984615326,
        0.5639703273773193
      ],
      "min": [
        0.25330185890197754,
        0.5338411331176758
      ],
      "type": "VEC2"
    },
    {
      "bufferView": 0,
      "byteOffset": 6756,
      "componentType": 5125,
      "count": 186,
      "type": "SCALAR"
    },
    {
      "bufferView": 2,
      "byteOffset": 15792,
      "componentType": 5126,
      "count": 950,
      "max": [
        0.010475716553628445,
        0.986320436000824,
        0.8795465230941772
      ],
      "min": [
        -0.032238252460956573,
        -0.986320436000824,
        -1.0795453786849976
      ],
      "type": "VEC3"
    },
    {
      "bufferView": 2,
      "byteOffset": 27192,
      "componentType": 5126,
      "count": 950,
      "max": [
        0.9999622106552124,
        0.9995123147964478,
        1.0
      ],
      "min": [
        -0.16824941337108612,
        -0.9995123147964478,
        -1.0
      ],
      "type": "VEC3"
    },
    {
      "bufferView": 1,
      "byteOffset": 5264,
      "componentType": 5126,
      "count": 950,
      "max": [
        0.480610728263855,
        0.8697856664657593
      ],
      "min": [
        2.92983942662417e-10,
        0.533425509929657
      ],
      "type": "VEC2"
    },
    {
      "bufferView": 0,
      "byteOffset": 7500,
      "componentType": 5125,
      "count": 2028,
      "type": "SCALAR"
    },
    {
      "bufferView": 2,
      "byteOffset": 38592,
      "componentType": 5126,
      "count": 186,
      "max": [
        1.0,
        0.0514412522315979,
        -0.005098849534988403
      ],
      "min": [
        -1.0000004768371582,
        -0.0514412522315979,
        -2.1999988555908203
      ],
      "type": "VEC3"
    },
    {
      "bufferView": 2,
      "byteOffset": 40824,
      "componentType": 5126,
      "count": 186,
      "max": [
        1.0,
        1.0,
        1.0
      ],
      "min": [
        -1.0,
        -1.0,
        -1.0
      ],
      "type": "VEC3"
    },
    {
      "bufferView": 1,
      "byteOffset": 12864,
      "componentType": 5126,
      "count": 186,
      "max": [
        1.0,
        1.0
      ],
      "min": [
        0.0,
        0.001443237066268921
      ],
      "type": "VEC2"
    },
    {
      "bufferView": 0,
      "byteOffset": 15612,
      "componentType": 5125,
      "count": 336,
      "type": "SCALAR"
    },
    {
      "bufferView": 2,
      "byteOffset": 43056,
      "componentType": 5126,
      "count": 4,
      "max": [
        0.9924604892730713,
        0.04816591739654541,
        -0.19888631999492645
      ],
      "min": [
        -0.9924604892730713,
        0.04816591739654541,
        -2.1924595832824707
      ],
      "type": "VEC3"
    },
    {
      "bufferView": 2,
      "byteOffset": 43104,
      "componentType": 5126,
      "count": 4,
      "max": [
        0.0,
        -1.0,
        -0.0
      ],
      "min": [
        0.0,
        -1.0,
        -0.0
      ],
      "type": "VEC3"
    },
    {
      "bufferView": 1,
      "byteOffset": 14352,
      "componentType": 5126,
      "count": 4,
      "max": [
        0.9999999403953552,
        0.9999999403953552
      ],
      "min": [
        0.0,
        0.0
      ],
      "type": "VEC2"
    },
    {
      "bufferView": 1,
      "byteOffset": 14384,
      "componentType": 5126,
      "count": 4,
      "max": [
        0.9999999403953552,
        0.9999999403953552
      ],
      "min": [
        0.0,
        0.0
      ],
      "type": "VEC2"
    },
    {
      "bufferView": 1,
      "byteOffset": 14416,
      "componentType": 5126,
      "count": 4,
      "max": [
        0.9999999403953552,
        0.9999999403953552
      ],
      "min": [
        0.0,
        0.0
      ],
      "type": "VEC2"
    },
    {
      "bufferView": 0,
      "byteOffset": 16956,
      "componentType": 5125,
      "count": 6,
      "type": "SCALAR"
    },
    {
      "bufferView": 2,
      "byteOffset": 43152,
      "componentType": 5126,
      "count": 2788,
      "max": [
        0.9147648811340332,
        0.00669117784127593,
        0.9147648811340332
      ],
      "min": [
        -0.9147648215293884,
        -0.0015309769660234451,
        -0.9147648215293884
      ],
      "type": "VEC3"
    },
    {
      "bufferView": 2,
      "byteOffset": 76608,
      "componentType": 5126,
      "count": 2788,
      "max": [
        0.999808132648468,
        1.0,
        0.9998081922531128
      ],
      "min": [
        -0.9998081922531128,
        -1.0,
        -0.999808132648468
      ],
      "type": "VEC3"
    },
    {
      "bufferView": 1,
      "byteOffset": 14448,
      "componentType": 5126,
      "count": 2788,
      "max": [
        0.9826414585113525,
        0.9826411008834839
      ],
      "min": [
        0.017358900979161263,
        0.0173589326441288
      ],
      "type": "VEC2"
    },
    {
      "bufferView": 0,
      "byteOffset": 16980,
      "componentType": 5125,
      "count": 2880,
      "type": "SCALAR"
    },
    {
      "bufferView": 2,
      "byteOffset": 110064,
      "componentType": 5126,
      "count": 518,
      "max": [
        0.32980456948280334,
        0.009312408976256847,
        0.3298036754131317
      ],
      "min": [
        -0.32980456948280334,
        -0.0015309769660234451,
        -0.3298055827617645
      ],
      "type": "VEC3"
    },
    {
      "bufferView": 2,
      "byteOffset": 116280,
      "componentType": 5126,
      "count": 518,
      "max": [
        0.9951850175857544,
        1.0,
        0.9951850175857544
      ],
      "min": [
        -0.9951848983764648,
        -1.5387417079182342e-05,
        -0.9951849579811096
      ],
      "type": "VEC3"
    },
    {
      "bufferView": 1,
      "byteOffset": 36752,
      "componentType": 5126,
      "count": 518,
      "max": [
        0.6917092204093933,
        0.6917097568511963
      ],
      "min": [
        0.3082897663116455,
        0.3082903027534485
      ],
      "type": "VEC2"
    },
    {
      "bufferView": 0,
      "byteOffset": 28500,
      "componentType": 5125,
      "count": 576,
      "type": "SCALAR"
    }
  ],
  "asset": {
    "extras": {
      "author": "blue man group (https://sketchfab.com/bloobloo)",
      "license": "CC-BY-4.0 (http://creativecommons.org/licenses/by/4.0/)",
      "source": "https://sketchfab.com/3d-models/cd-jewel-case-f6c8386e76e54918b551ebdd276479dd",
      "title": "CD + Jewel Case"
    },
    "generator": "Sketchfab-12.64.0",
    "version": "2.0"
  },
  "bufferViews": [
    {
      "buffer": 0,
      "byteLength": 30804,
      "name": "floatBufferViews",
      "target": 34963
    },
    {
      "buffer": 0,
      "byteLength": 40896,
      "byteOffset": 30804,
      "byteStride": 8,
      "name": "floatBufferViews",
      "target": 34962
    },
    {
      "buffer": 0,
      "byteLength": 122496,
      "byteOffset": 71700,
      "byteStride": 12,
      "name": "floatBufferViews",
      "target": 34962
    }
  ],
  "buffers": [
    {
      "byteLength": 194196,
      "uri": "scene.bin"
    }
  ],
  "images": [
    {
      "uri": "textures/Cover_baseColor.png"
    },
    {
      "uri": "textures/Cover_metallicRoughness.png"
    },
    {
      "uri": "textures/Material.001_baseColor.png"
    },
    {
      "uri": "textures/Material.002_baseColor.png"
    }
  ],
  "materials": [
    {
      "doubleSided": true,
      "name": "Rough_Plastic",
      "pbrMetallicRoughness": {
        "baseColorFactor": [
          0.0495491,
          0.0495491,
          0.0495491,
          1.0
        ],
        "metallicFactor": 0.0
      }
    },
    {
      "alphaMode": "BLEND",
      "doubleSided": true,
      "name": "Translucent",
      "pbrMetallicRoughness": {
        "baseColorFactor": [
          0.879469,
          0.970993,
          1.0,
          0.4516428627887322
        ],
        "metallicFactor": 0.0,
        "roughnessFactor": 0.050351434008840575
      }
    },
    {
      "doubleSided": true,
      "name": "White",
      "pbrMetallicRoughness": {
        "baseColorFactor": [
          0.0495489,
          0.0495489,
          0.0495489,
          1.0
        ],
        "metallicFactor": 0.0
      }
    },
    {
      "alphaMode": "BLEND",
      "doubleSided": true,
      "name": "Material.008",
      "pbrMetallicRoughness": {
        "baseColorFactor": [
          0.8,
          0.8,
          0.8,
          0.0
        ],
        "metallicFactor": 0.0,
        "roughnessFactor": 0.5
      }
    },
    {
      "doubleSided": true,
      "name": "FileBase",
      "pbrMetallicRoughness": {
        "baseColorFactor": [
          0.615177,
          0.615177,
          0.615177,
          1.0
        ],
        "metallicFactor": 0.0,
        "roughnessFactor": 0.0
      }
    },
    {
      "doubleSided": true,
      "name": "Cover",
      "pbrMetallicRoughness": {
        "baseColorTexture": {
          "index": 0
        },
        "metallicFactor": 0.0,
        "metallicRoughnessTexture": {
          "index": 1
        }
      }
    },
    {
      "doubleSided": true,
      "name": "Material.001",
      "pbrMetallicRoughness": {
        "baseColorTexture": {
          "index": 2
        },
        "metallicFactor": 0.4820437286053907,
        "roughnessFactor": 0.06859195349883565
      }
    },
    {
      "alphaMode": "MASK",
      "doubleSided": true,
      "name": "Material.002",
      "pbrMetallicRoughness": {
        "baseColorTexture": {
          "index": 3
        },
        "metallicFactor": 0.0,
        "roughnessFactor": 0.409091
      }
    }
  ],
  "meshes": [
    {
      "name": "Object_0",
      "primitives": [
        {
          "attributes": {
            "NORMAL": 1,
            "POSITION": 0,
            "TEXCOORD_0": 2
          },
          "indices": 3,
          "material": 0,
          "mode": 4
        }
      ]
    },
    {
      "name": "Object_1",
      "primitives": [
        {
          "attributes": {
            "NORMAL": 5,
            "POSITION": 4,
            "TEXCOORD_0": 6
          },
          "indices": 7,
          "material": 1,
          "mode": 4
        }
      ]
    },
    {
      "name": "Object_2",
      "primitives": [
        {
          "attributes": {
            "NORMAL": 9,
            "POSITION": 8,
            "TEXCOORD_0": 10
          },
          "indices": 11,
          "material": 2,
          "mode": 4
        }
      ]
    },
    {
      "name": "Object_3",
      "primitives": [
        {
          "attributes": {
            "NORMAL": 13,
            "POSITION": 12,
            "TEXCOORD_0": 14
          },
          "indices": 15,
          "material": 3,
          "mode": 4
        }
      ]
    },
    {
      "name": "Object_4",
      "primitives": [
        {
          "attributes": {
            "NORMAL": 17,
            "POSITION": 16,
            "TEXCOORD_0": 18
          },
          "indices": 19,
          "material": 4,
          "mode": 4
        }
      ]
    },
    {
      "name": "Object_5",
      "primitives": [
        {
          "attributes": {
            "NORMAL": 21,
            "POSITION": 20,
            "TEXCOORD_0": 22
          },
          "indices": 23,
          "material": 1,
          "mode": 4
        }
      ]
    },
    {
      "name": "Object_6",
      "primitives": [
        {
          "attributes": {
            "NORMAL": 25,
            "POSITION": 24,
            "TEXCOORD_0": 26,
            "TEXCOORD_1": 27,
            "TEXCOORD_2": 28
          },
          "indices": 29,
          "material": 5,
          "mode": 4
        }
      ]
    },
    {
      "name": "Object_7",
      "primitives": [
        {
          "attributes": {
            "NORMAL": 31,
            "POSITION": 30,
            "TEXCOORD_0": 32
          },
          "indices": 33,
          "material": 6,
          "mode": 4
        }
      ]
    },
    {
      "name": "Object_8",
      "primitives": [
        {
          "attributes": {
            "NORMAL": 35,
            "POSITION": 34,
            "TEXCOORD_0": 36
          },
          "indices": 37,
          "material": 7,
          "mode": 4
        }
      ]
    }
  ],
  "nodes": [
    {
      "children": [
        1
      ],
      "matrix": [
        1.0,
        0.0,
        0.0,
        0.0,
        0.0,
        2.220446049250313e-16,
        -1.0,
        0.0,
        0.0,
        1.0,
        2.220446049250313e-16,
        0.0,
        0.0,
        0.0,
        0.0,
        1.0
      ],
      "name": "Sketchfab_model"
    },
    {
      "children": [
        2
      ],
      "name": "root"
    },
    {
      "children": [
        3
      ],
      "matrix": [
        1.0,
        0.0,
        0.0,
        0.0,
        0.0,
        2.220446049250313e-16,
        1.0,
        0.0,
        0.0,
        -1.0,
        2.220446049250313e-16,
        0.0,
        0.0,
        0.0,
        0.0,
        1.0
      ],
      "name": "GLTF_SceneRootNode"
    },
    {
      "children": [
        4,
        5,
        6,
        7,
        8,
        9,
        12
      ],
      "matrix": [
        1.0,
        0.0,
        0.0,
        0.0,
        0.0,
        1.0,
        0.0,
        0.0,
        0.0,
        0.0,
        1.0,
        0.0,
        -0.10297346115112305,
        1.044848918914795,
        0.6400805711746216,
        1.0
      ],
      "name": "Case Back_2"
    },
    {
      "mesh": 0,
      "name": "Object_4"
    },
    {
      "mesh": 1,
      "name": "Object_5"
    },
    {
      "mesh": 2,
      "name": "Object_6"
    },
    {
      "mesh": 3,
      "name": "Object_7"
    },
    {
      "mesh": 4,
      "name": "Object_8"
    },
    {
      "children": [
        10,
        11
      ],
      "matrix": [
        3.470421148232816e-07,
        -0.9999999999999396,
        1.88154464786372e-08,
        0.0,
        0.8263030520570496,
        2.973593029587107e-07,
        0.5632257683745625,
        0.0,
        -0.5632257683745341,
        -1.7991580092413528e-07,
        0.8263030520571029,
        0.0,
        -0.0006308555603027344,
        0.0,
        1.1053247451782227,
        1.0
      ],
      "name": "Case Front_0"
    },
    {
      "mesh": 5,
      "name": "Object_10"
    },
    {
      "mesh": 6,
      "name": "Object_11"
    },
    {
      "children": [
        13,
        14
      ],
      "matrix": [
        2.837155385674e-15,
        1.022192955017087,
        -7.717343520949808e-08,
        0.0,
        1.022193193435666,
        2.8371560474184902e-15,
        7.717345320960332e-08,
        0.0,
        7.717343520949808e-08,
        -7.717343520949808e-08,
        -1.022192955017084,
        0.0,
        0.5282306671142578,
        0.005989432334899902,
        -1.907060980796814,
        1.0
      ],
      "name": "CD_1"
    },
    {
      "mesh": 7,
      "name": "Object_13"
    },
    {
      "mesh": 8,
      "name": "Object_14"
    }
  ],
  "samplers": [
    {
      "magFilter": 9729,
      "minFilter": 9987,
      "wrapS": 10497,
      "wrapT": 10497
    }
  ],
  "scene": 0,
  "scenes": [
    {
      "name": "Sketchfab_Scene",
      "nodes": [
        0
      ]
    }
  ],
  "textures": [
    {
      "sampler": 0,
      "source": 0
    },
    {
      "sampler": 0,
      "source": 1
    },
    {
      "sampler": 0,
      "source": 2
    },
    {
      "sampler": 0,
      "source": 3
    }
  ]
}
