<?xml version="1.0" encoding="UTF-8"?><svg id="OBJECTS" xmlns="http://www.w3.org/2000/svg" xmlns:xlink="http://www.w3.org/1999/xlink" viewBox="0 0 500 500"><defs><style>.cls-1{fill:url(#_未命名漸層_99-5);}.cls-2{fill:url(#_未命名漸層_99-3);}.cls-3{fill:url(#_未命名漸層_99-4);}.cls-4{fill:url(#_未命名漸層_99-2);}.cls-5{fill:url(#_未命名漸層_99);}</style><linearGradient id="_未命名漸層_99" x1="1945.1" y1="1943.69" x2="2093.43" y2="1943.69" gradientTransform="translate(309.1 3142.75) rotate(-135) scale(1.04 1)" gradientUnits="userSpaceOnUse"><stop offset=".14" stop-color="#c8f7f3"/><stop offset=".9" stop-color="#3fbdff"/></linearGradient><linearGradient id="_未命名漸層_99-2" x1="303.63" y1="205.87" x2="142.66" y2="205.51" gradientTransform="matrix(1, 0, 0, 1, 0, 0)" xlink:href="#_未命名漸層_99"/><linearGradient id="_未命名漸層_99-3" x1="253.63" y1="357.64" x2="253.63" y2="236.35" gradientTransform="matrix(1, 0, 0, 1, 0, 0)" xlink:href="#_未命名漸層_99"/><linearGradient id="_未命名漸層_99-4" x1="201.49" y1="142.72" x2="334.09" y2="275.33" gradientTransform="matrix(1, 0, 0, 1, 0, 0)" xlink:href="#_未命名漸層_99"/><linearGradient id="_未命名漸層_99-5" x1="393.29" y1="188.19" x2="280.18" y2="321.16" gradientTransform="matrix(1, 0, 0, 1, 0, 0)" xlink:href="#_未命名漸層_99"/></defs><path class="cls-5" d="M143.29,242.89l-.08-8.31c-.08-8.15,9.63-12.06,15.61-6.29l92.93,89.77c1.85,1.79,2.92,4.22,2.97,6.75l.16,8.39c.16,8.19-9.6,12.18-15.61,6.37l-93-89.86c-1.87-1.81-2.95-4.28-2.97-6.83Z"/><path class="cls-4" d="M159.87,202.97v5.5c0,5.03,4.08,9.11,9.11,9.11h131.04c2.44,0,4.77-.98,6.48-2.71l5.43-5.5c5.68-5.76,1.6-15.51-6.48-15.51H168.98c-5.03,0-9.11,4.08-9.11,9.11Z"/><path class="cls-2" d="M256.38,230.76h-5.51c-5.03,0-9.11,4.08-9.11,9.11v98.12c0,2.44,.98,4.77,2.71,6.48l5.51,5.43c5.76,5.68,15.51,1.6,15.51-6.48v-103.56c0-5.03-4.08-9.11-9.11-9.11Z"/><path class="cls-3" d="M385.89,223.52l-3.89,3.9c-3.56,3.56-9.33,3.56-12.89,0l-100.65-100.65c-3.49-3.49-9.13-3.57-12.71-.17l-89.43,84.87c-3.58,3.4-9.23,3.32-12.72-.17l-3.91-3.92c-3.61-3.61-3.54-9.49,.15-13.02l105.89-101.24c3.58-3.42,9.23-3.36,12.74,.14l117.42,117.38c3.56,3.56,3.56,9.32,0,12.88Z"/><path class="cls-1" d="M385.87,210.64l-3.89-3.89c-3.55-3.55-9.31-3.56-12.87-.01l-93.15,92.79c-1.72,1.71-2.68,4.03-2.68,6.46v7.82c0,8.11,9.8,12.17,15.54,6.45l97.04-96.71c3.57-3.56,3.57-9.33,.01-12.89Z"/></svg>